# Blender v2.79 (sub 0) OBJ File: ''
# www.blender.org
mtllib laser.mtl
o Cone_Cone.001
v 0.029425 0.000000 0.293725
v -3.125610 -0.000054 -0.006731
v 0.029755 -0.254146 0.146994
v 0.030406 -0.254146 -0.146469
v 0.030726 0.000001 -0.293201
v 0.030397 0.254147 -0.146469
v 0.029746 0.254147 0.146994
v 0.230552 0.187688 0.109067
v 0.231032 0.187688 -0.107652
v 0.230314 0.000004 0.217425
v 0.325807 0.000006 0.000917
v 0.231276 0.000004 -0.216012
v 0.231038 -0.187680 -0.107652
v 0.230559 -0.187680 0.109067
vt 0.021354 0.900604
vt 0.507389 0.009456
vt 0.258716 0.900696
vt 0.733438 0.900880
vt 0.970800 0.900972
vt 0.733438 0.900880
vt 0.258716 0.900696
vt 0.320069 0.957414
vt 0.670644 0.957550
vt 0.144782 0.957346
vt 0.495017 0.984318
vt 0.845934 0.957617
vt 0.670644 0.957550
vt 0.320069 0.957414
vn -0.0822 -0.4984 0.8631
vn -0.0803 -0.9968 -0.0002
vn -0.0784 -0.4984 -0.8634
vn -0.0784 0.4984 -0.8634
vn -0.0803 0.9968 -0.0002
vn -0.0822 0.4984 0.8631
vn 0.3143 0.9493 0.0007
vn 0.8913 0.2258 0.3931
vn 0.3162 0.4747 -0.8214
vn 0.3162 -0.4747 -0.8214
vn 0.3144 -0.9493 0.0007
vn 0.3125 0.4747 0.8228
vn 0.3125 -0.4746 0.8228
vn 0.8931 0.2258 -0.3892
vn 0.8922 -0.4516 0.0020
vn 0.8922 0.4517 0.0020
vn 0.8931 -0.2258 -0.3892
vn 0.8913 -0.2258 0.3931
usemtl None
s 1
f 1/1/1 2/2/1 3/3/1
f 3/3/2 2/2/2 4/4/2
f 4/4/3 2/2/3 5/5/3
f 5/5/4 2/2/4 6/6/4
f 6/6/5 2/2/5 7/7/5
f 7/7/6 2/2/6 1/1/6
f 6/6/7 7/7/7 8/8/7 9/9/7
f 8/8/8 10/10/8 11/11/8
f 5/5/9 6/6/9 9/9/9 12/12/9
f 4/4/10 5/5/10 12/12/10 13/13/10
f 3/3/11 4/4/11 13/13/11 14/14/11
f 7/7/12 1/1/12 10/10/12 8/8/12
f 1/1/13 3/3/13 14/14/13 10/10/13
f 12/12/14 9/9/14 11/11/14
f 14/14/15 13/13/15 11/11/15
f 9/9/16 8/8/16 11/11/16
f 13/13/17 12/12/17 11/11/17
f 10/10/18 14/14/18 11/11/18
