# Blender v2.79 (sub 0) OBJ File: ''
# www.blender.org
mtllib laser3.mtl
o Cone_Cone.001
v -0.293725 -0.000000 0.205793
v 0.006731 -0.000054 -2.949242
v -0.146994 -0.254146 0.206123
v 0.146469 -0.254146 0.206774
v 0.293201 0.000001 0.207094
v 0.146469 0.254147 0.206765
v -0.146994 0.254147 0.206114
v -0.109067 0.187688 0.406920
v 0.107652 0.187688 0.407400
v -0.217425 0.000004 0.406682
v -0.000917 0.000006 0.502175
v 0.216012 0.000004 0.407644
v 0.107653 -0.187680 0.407406
v -0.109066 -0.187680 0.406927
v -0.293725 -0.000000 0.205793
v 0.006731 -0.000054 -2.949242
v -0.146994 -0.254146 0.206123
v 0.146469 -0.254146 0.206774
v 0.293201 0.000001 0.207094
v 0.146469 0.254147 0.206765
v -0.146994 0.254147 0.206114
v -0.109067 0.187688 0.406920
v 0.107652 0.187688 0.407400
v -0.217425 0.000004 0.406682
v -0.000917 0.000006 0.502175
v 0.216012 0.000004 0.407644
v 0.107653 -0.187680 0.407406
v -0.109066 -0.187680 0.406927
v 0.848681 -0.003817 -0.145343
v 1.131669 -0.003868 -3.116947
v 0.986882 -0.243187 -0.145033
v 1.263283 -0.243187 -0.144419
v 1.401484 -0.003816 -0.144118
v 1.263283 0.235554 -0.144428
v 0.986882 0.235554 -0.145041
v 1.022604 0.172959 0.044090
v 1.226723 0.172959 0.044542
v 0.920545 -0.003813 0.043866
v 1.124466 -0.003811 0.133807
v 1.328783 -0.003813 0.044772
v 1.226723 -0.180585 0.044548
v 1.022604 -0.180585 0.044097
v -1.411784 -0.003817 -0.145343
v -1.128797 -0.003868 -3.116947
v -1.273584 -0.243187 -0.145033
v -0.997183 -0.243187 -0.144419
v -0.858982 -0.003816 -0.144118
v -0.997183 0.235554 -0.144428
v -1.273584 0.235554 -0.145041
v -1.237862 0.172959 0.044090
v -1.033743 0.172959 0.044542
v -1.339920 -0.003813 0.043866
v -1.136000 -0.003811 0.133807
v -0.931683 -0.003813 0.044772
v -1.033743 -0.180585 0.044548
v -1.237862 -0.180585 0.044097
v -1.411784 -0.003817 -0.145343
v -1.128797 -0.003868 -3.116947
v -1.273584 -0.243187 -0.145033
v -0.997183 -0.243187 -0.144419
v -0.858982 -0.003816 -0.144118
v -0.997183 0.235554 -0.144428
v -1.273584 0.235554 -0.145041
v -1.237862 0.172959 0.044090
v -1.033743 0.172959 0.044542
v -1.339920 -0.003813 0.043866
v -1.136000 -0.003811 0.133807
v -0.931683 -0.003813 0.044772
v -1.033743 -0.180585 0.044548
v -1.237862 -0.180585 0.044097
vt 0.021354 0.900604
vt 0.507389 0.009456
vt 0.258716 0.900696
vt 0.733438 0.900880
vt 0.970800 0.900972
vt 0.733438 0.900880
vt 0.258716 0.900696
vt 0.320069 0.957414
vt 0.670644 0.957550
vt 0.144782 0.957346
vt 0.495017 0.984318
vt 0.845934 0.957617
vt 0.670644 0.957550
vt 0.320069 0.957414
vt 0.021354 0.900604
vt 0.507389 0.009456
vt 0.258716 0.900696
vt 0.733438 0.900880
vt 0.970800 0.900972
vt 0.733438 0.900880
vt 0.258716 0.900696
vt 0.320069 0.957414
vt 0.670644 0.957550
vt 0.144782 0.957346
vt 0.495017 0.984318
vt 0.845934 0.957617
vt 0.670644 0.957550
vt 0.320069 0.957414
vt 0.021354 0.900604
vt 0.507389 0.009456
vt 0.258716 0.900696
vt 0.733438 0.900880
vt 0.970800 0.900972
vt 0.733438 0.900880
vt 0.258716 0.900696
vt 0.320069 0.957414
vt 0.670644 0.957550
vt 0.144782 0.957346
vt 0.495017 0.984318
vt 0.845934 0.957617
vt 0.670644 0.957550
vt 0.320069 0.957414
vt 0.021354 0.900604
vt 0.507389 0.009456
vt 0.258716 0.900696
vt 0.733438 0.900880
vt 0.970800 0.900972
vt 0.733438 0.900880
vt 0.258716 0.900696
vt 0.320069 0.957414
vt 0.670644 0.957550
vt 0.144782 0.957346
vt 0.495017 0.984318
vt 0.845934 0.957617
vt 0.670644 0.957550
vt 0.320069 0.957414
vt 0.021354 0.900604
vt 0.507389 0.009456
vt 0.258716 0.900696
vt 0.733438 0.900880
vt 0.970800 0.900972
vt 0.733438 0.900880
vt 0.258716 0.900696
vt 0.320069 0.957414
vt 0.670644 0.957550
vt 0.144782 0.957346
vt 0.495017 0.984318
vt 0.845934 0.957617
vt 0.670644 0.957550
vt 0.320069 0.957414
vn -0.8631 -0.4984 -0.0822
vn 0.0002 -0.9968 -0.0803
vn 0.8634 -0.4984 -0.0784
vn 0.8634 0.4984 -0.0784
vn 0.0002 0.9968 -0.0803
vn -0.8631 0.4984 -0.0822
vn -0.0007 0.9493 0.3143
vn -0.3931 0.2258 0.8913
vn 0.8214 0.4747 0.3162
vn 0.8214 -0.4747 0.3162
vn -0.0007 -0.9493 0.3144
vn -0.8228 0.4747 0.3125
vn -0.8228 -0.4746 0.3125
vn 0.3892 0.2258 0.8931
vn -0.0020 -0.4516 0.8922
vn -0.0020 0.4517 0.8922
vn 0.3892 -0.2258 0.8931
vn -0.3931 -0.2258 0.8913
usemtl None
s 1
f 1/1/1 2/2/1 3/3/1
f 3/3/2 2/2/2 4/4/2
f 4/4/3 2/2/3 5/5/3
f 5/5/4 2/2/4 6/6/4
f 6/6/5 2/2/5 7/7/5
f 7/7/6 2/2/6 1/1/6
f 6/6/7 7/7/7 8/8/7 9/9/7
f 8/8/8 10/10/8 11/11/8
f 5/5/9 6/6/9 9/9/9 12/12/9
f 4/4/10 5/5/10 12/12/10 13/13/10
f 3/3/11 4/4/11 13/13/11 14/14/11
f 7/7/12 1/1/12 10/10/12 8/8/12
f 1/1/13 3/3/13 14/14/13 10/10/13
f 12/12/14 9/9/14 11/11/14
f 14/14/15 13/13/15 11/11/15
f 9/9/16 8/8/16 11/11/16
f 13/13/17 12/12/17 11/11/17
f 10/10/18 14/14/18 11/11/18
f 15/15/1 16/16/1 17/17/1
f 17/17/2 16/16/2 18/18/2
f 18/18/3 16/16/3 19/19/3
f 19/19/4 16/16/4 20/20/4
f 20/20/5 16/16/5 21/21/5
f 21/21/6 16/16/6 15/15/6
f 20/20/7 21/21/7 22/22/7 23/23/7
f 22/22/8 24/24/8 25/25/8
f 19/19/9 20/20/9 23/23/9 26/26/9
f 18/18/10 19/19/10 26/26/10 27/27/10
f 17/17/11 18/18/11 27/27/11 28/28/11
f 21/21/12 15/15/12 24/24/12 22/22/12
f 15/15/13 17/17/13 28/28/13 24/24/13
f 26/26/14 23/23/14 25/25/14
f 28/28/15 27/27/15 25/25/15
f 23/23/16 22/22/16 25/25/16
f 27/27/17 26/26/17 25/25/17
f 24/24/18 28/28/18 25/25/18
f 29/29/1 30/30/1 31/31/1
f 31/31/2 30/30/2 32/32/2
f 32/32/3 30/30/3 33/33/3
f 33/33/4 30/30/4 34/34/4
f 34/34/5 30/30/5 35/35/5
f 35/35/6 30/30/6 29/29/6
f 34/34/7 35/35/7 36/36/7 37/37/7
f 36/36/8 38/38/8 39/39/8
f 33/33/9 34/34/9 37/37/9 40/40/9
f 32/32/10 33/33/10 40/40/10 41/41/10
f 31/31/11 32/32/11 41/41/11 42/42/11
f 35/35/12 29/29/12 38/38/12 36/36/12
f 29/29/13 31/31/13 42/42/13 38/38/13
f 40/40/14 37/37/14 39/39/14
f 42/42/15 41/41/15 39/39/15
f 37/37/16 36/36/16 39/39/16
f 41/41/17 40/40/17 39/39/17
f 38/38/18 42/42/18 39/39/18
f 43/43/1 44/44/1 45/45/1
f 45/45/2 44/44/2 46/46/2
f 46/46/3 44/44/3 47/47/3
f 47/47/4 44/44/4 48/48/4
f 48/48/5 44/44/5 49/49/5
f 49/49/6 44/44/6 43/43/6
f 48/48/7 49/49/7 50/50/7 51/51/7
f 50/50/8 52/52/8 53/53/8
f 47/47/9 48/48/9 51/51/9 54/54/9
f 46/46/10 47/47/10 54/54/10 55/55/10
f 45/45/11 46/46/11 55/55/11 56/56/11
f 49/49/12 43/43/12 52/52/12 50/50/12
f 43/43/13 45/45/13 56/56/13 52/52/13
f 54/54/14 51/51/14 53/53/14
f 56/56/15 55/55/15 53/53/15
f 51/51/16 50/50/16 53/53/16
f 55/55/17 54/54/17 53/53/17
f 52/52/18 56/56/18 53/53/18
f 57/57/1 58/58/1 59/59/1
f 59/59/2 58/58/2 60/60/2
f 60/60/3 58/58/3 61/61/3
f 61/61/4 58/58/4 62/62/4
f 62/62/5 58/58/5 63/63/5
f 63/63/6 58/58/6 57/57/6
f 62/62/7 63/63/7 64/64/7 65/65/7
f 64/64/8 66/66/8 67/67/8
f 61/61/9 62/62/9 65/65/9 68/68/9
f 60/60/10 61/61/10 68/68/10 69/69/10
f 59/59/11 60/60/11 69/69/11 70/70/11
f 63/63/12 57/57/12 66/66/12 64/64/12
f 57/57/13 59/59/13 70/70/13 66/66/13
f 68/68/14 65/65/14 67/67/14
f 70/70/15 69/69/15 67/67/15
f 65/65/16 64/64/16 67/67/16
f 69/69/17 68/68/17 67/67/17
f 66/66/18 70/70/18 67/67/18
