# Blender v2.79 (sub 0) OBJ File: 'orbital2.blend'
# www.blender.org
mtllib orbital2.mtl
o Icosphere
v 0.000000 -0.468488 -0.000000
v 0.401204 -0.161994 0.291488
v -0.153243 -0.161994 0.471642
v -0.495918 -0.161994 -0.000000
v -0.153243 -0.161994 -0.471642
v 0.401204 -0.161994 -0.291488
v 0.180353 0.854586 0.555081
v -0.472182 0.854586 0.343056
v -0.472182 0.854586 -0.343056
v 0.180353 0.854586 -0.555081
v 0.583652 0.854586 -0.000000
v 0.000000 1.300311 0.000000
vt 0.845275 0.438814
vt 1.000000 0.398489
vt 0.997705 0.569331
vt 0.315482 0.522105
vt 0.454505 0.438814
vt 0.425387 0.645729
vt 0.816157 0.645730
vt 0.609231 0.398489
vt 0.606934 0.569332
vt 0.157693 0.528827
vt 0.000000 0.523086
vt 0.048724 0.161793
vt 0.315482 0.528827
vt 0.278198 0.165968
vt 1.000000 0.862206
vt 0.660959 0.094615
vt 0.660960 0.303876
vt 0.315482 0.199247
vt 0.609231 0.862205
vt 0.206924 1.000000
vt 0.000000 0.821841
vt 0.206924 0.715312
vt 0.339311 0.398489
vt 0.339310 0.000000
vt 0.816157 0.398489
vt 0.816157 0.683176
vt 0.609231 0.576647
vt 0.166052 0.000000
vt 0.009512 0.558435
vt 0.202212 0.528827
vt 0.811445 0.869663
vt 0.618746 0.840054
vn 0.1876 -0.7947 0.5774
vn 0.6071 -0.7947 0.0000
vn -0.4911 -0.7947 0.3568
vn -0.4911 -0.7947 -0.3568
vn 0.1876 -0.7947 -0.5774
vn 0.9843 -0.1766 0.0000
vn 0.3042 -0.1766 0.9361
vn -0.7963 -0.1766 0.5786
vn -0.7963 -0.1766 -0.5786
vn 0.3042 -0.1766 -0.9361
vn 0.8088 0.0233 0.5876
vn -0.3089 0.0233 0.9508
vn -0.9997 0.0233 0.0000
vn -0.3089 0.0233 -0.9508
vn 0.8088 0.0233 -0.5876
vn 0.5553 0.7272 0.4035
vn -0.2121 0.7272 0.6528
vn -0.6864 0.7272 0.0000
vn -0.2121 0.7272 -0.6528
vn 0.5553 0.7272 -0.4035
usemtl None
s off
f 1/1/1 2/2/1 3/3/1
f 2/4/2 1/5/2 6/6/2
f 1/1/3 3/3/3 4/7/3
f 1/5/4 4/8/4 5/9/4
f 1/5/5 5/9/5 6/6/5
f 2/10/6 6/11/6 11/12/6
f 3/13/7 2/10/7 7/14/7
f 4/7/8 3/3/8 8/15/8
f 5/16/9 4/17/9 9/18/9
f 6/6/10 5/9/10 10/19/10
f 2/10/11 11/12/11 7/14/11
f 3/20/12 7/21/12 8/22/12
f 4/17/13 8/23/13 9/18/13
f 5/16/14 9/18/14 10/24/14
f 6/25/15 10/26/15 11/27/15
f 7/14/16 11/12/16 12/28/16
f 8/22/17 7/21/17 12/29/17
f 9/30/18 8/22/18 12/29/18
f 10/26/19 9/31/19 12/32/19
f 11/27/20 10/26/20 12/32/20
